/* XPM */
static char *_5f68d9e1ceb462db0ffa95c15e0f6885c0rxgGkZrIrPEQO[] = {
/* columns rows colors chars-per-pixel */
"128 128 2 1 ",
"  c None",
". c black",
/* pixels */
"                                                                                                                                ",
"                                                                                                                                ",
"                                                                                                                                ",
"                                                                                                                                ",
"                                                                                                                                ",
"                                                                                                                                ",
"                                                                                                                                ",
"                                                                                                                                ",
"                                                                                                                                ",
"                 ..............................................................................................                 ",
"                 ..............................................................................................                 ",
"                 ..............................................................................................                 ",
"                 ..............................................................................................                 ",
"                 ..............................................................................................                 ",
"                 ..............................................................................................                 ",
"                 ..............................................................................................                 ",
"                 ..............................................................................................                 ",
"         ........                                                                                              ........         ",
"         ........                                                                                              ........         ",
"         ........                                                                                              ........         ",
"         ........                                                                                              ........         ",
"         ........                                                                                              ........         ",
"         ........                                                                                              ........         ",
"         ........                                                                                              ........         ",
"         ........                                                                                              ........         ",
"         ........                                                                                              .........        ",
".........                                                                                                              .........",
".........                                                                                                              .........",
".........                                                                                                              .........",
".........                                                                                                              .........",
".........                                                                                                              .........",
".........                                                                                                              .........",
".........                                                                                                              .........",
".........                                                                                                              .........",
".........                                                                                                              .........",
".........                                                                                                              .........",
".........                                                                                                              .........",
".........                                                                                                              .........",
".........                                                                                                              .........",
".........                                                                                                              .........",
".........                                                                                                              .........",
".........                                                                                                              .........",
".........                                                                                                              .........",
".........                                                                                                              .........",
".........                                                                                                              .........",
".........                                                                                                              .........",
".........                                                                                                              .........",
".........                                                                                                              .........",
".........                                                                                                              .........",
".........                                                                                                              .........",
".........                                                                                                              .........",
".........                         .........                 ........                 .........                         .........",
".........                         .........                 ........                 .........                         .........",
".........                         .........                 ........                 .........                         .........",
".........                         .........                 ........                 .........                         .........",
".........                         .........                 ........                 .........                         .........",
".........                         .........                 ........                 .........                         .........",
".........                         .........                 ........                 .........                         .........",
".........                         .........                 ........                 .........                         .........",
".........                         .........                 ........                  ........                         .........",
".........                                                                                                              .........",
".........                                                                                                              .........",
".........                                                                                                              .........",
".........                                                                                                              .........",
".........                                                                                                              .........",
".........                                                                                                              .........",
".........                                                                                                              .........",
".........                                                                                                              .........",
".........                                                                                                              .........",
".........                                                                                                              .........",
".........                                                                                                              .........",
".........                                                                                                              .........",
".........                                                                                                              .........",
".........                                                                                                              .........",
".........                                                                                                              .........",
".........                                                                                                              .........",
".........                                                                                                              .........",
".........                                                                                                              .........",
".........                                                                                                              .........",
".........                                                                                                              .........",
".........                                                                                                              .........",
".........                                                                                                              .........",
".........                                                                                                              .........",
".........                                                                                                              .........",
".........                                                                                                              .........",
"         ........                                                                                              .........        ",
"         ........                                                                                              ........         ",
"         ........                                                                                              ........         ",
"         ........                                                                                              ........         ",
"         ........                                                                                              ........         ",
"         ........                                                                                              ........         ",
"         ........                                                                                              ........         ",
"         ........                                                                                              ........         ",
"         ........                                                                                              ........         ",
"                 ..................................                          ..................................                 ",
"                 ..................................                          ..................................                 ",
"                 ..................................                          ..................................                 ",
"                 ..................................                          ..................................                 ",
"                 ..................................                          ..................................                 ",
"                 ..................................                          ..................................                 ",
"                 ..................................                          ..................................                 ",
"                 ..................................                          ..................................                 ",
"                                                   ........          ........                                                   ",
"                                                   .........        .........                                                   ",
"                                                   .........        .........                                                   ",
"                                                   .........        .........                                                   ",
"                                                   .........        .........                                                   ",
"                                                   .........        .........                                                   ",
"                                                   .........        .........                                                   ",
"                                                   .........        .........                                                   ",
"                                                   .........        .........                                                   ",
"                                                            ........                                                            ",
"                                                            ........                                                            ",
"                                                            ........                                                            ",
"                                                            ........                                                            ",
"                                                            ........                                                            ",
"                                                            ........                                                            ",
"                                                            ........                                                            ",
"                                                            ........                                                            ",
"                                                            .      .                                                            ",
"                                                                                                                                ",
"                                                                                                                                ",
"                                                                                                                                ",
"                                                                                                                                ",
"                                                                                                                                ",
"                                                                                                                                ",
"                                                                                                                                ",
"                                                                                                                                "
};
